<svg width="198" height="32" viewBox="0 0 198 32" fill="none" xmlns="http://www.w3.org/2000/svg">
<path d="M4.10411 24.8953C5.03563 23.9511 5.96715 23.0069 6.89868 22.0486C12.0018 16.806 17.1184 11.5494 22.2216 6.2928C23.0721 5.41904 23.9091 4.55938 24.7596 3.69972C25.4617 2.99508 26.4067 2.84006 27.1492 3.30512C28.2697 3.99567 28.4182 5.57407 27.4867 6.54647C24.4491 9.66098 21.4116 12.7755 18.3875 15.89C18.1445 16.1437 17.888 16.3833 17.6045 16.6792C17.7935 16.8906 17.9285 17.0879 18.0905 17.2429C21.6411 20.893 25.1781 24.5289 28.7287 28.1789C29.1608 28.6299 29.5793 29.0668 29.6333 29.7573C29.7008 30.6593 29.3093 31.4062 28.5397 31.7867C27.8377 32.139 26.9737 31.984 26.3932 31.378C22.7481 27.587 19.0895 23.7961 15.4444 19.991C15.2824 19.8219 15.1069 19.6669 14.9044 19.4555C14.3104 20.0615 13.7434 20.6252 13.1763 21.203C10.2063 24.247 7.23619 27.2911 4.27961 30.3351C3.9286 30.6875 3.59109 31.0539 3.24008 31.3921C2.63257 31.9699 1.93055 32.1249 1.18803 31.8008C0.40501 31.4767 0 30.8566 0 29.9546C0 26.1778 0 22.3868 0 18.6099C0 13.1419 0 7.67389 0.0135003 2.21998C0.0135003 0.838879 0.79652 -0.0066893 2.05205 0.0214963C2.91608 0.0355891 3.65859 0.683859 3.8341 1.57171C3.9016 1.92403 3.9286 2.29044 3.9286 2.65685C3.9286 9.68917 3.9286 16.7215 3.9286 23.7538C3.9286 24.1061 3.9286 24.4725 3.9286 24.8248C3.9826 24.853 4.0366 24.8812 4.10411 24.8953Z" fill="#F82E52"/>
<path d="M33.4132 22.4198C33.6157 23.8573 34.2637 24.9424 35.2088 25.8303C36.5723 27.1127 38.2193 27.7328 40.0014 27.9724C41.8509 28.226 43.687 28.071 45.5095 27.6764C45.8605 27.5919 46.2386 27.5778 46.6031 27.606C47.2916 27.6482 47.8316 28.0992 48.0071 28.7757C48.1826 29.4662 48.1016 30.1427 47.5211 30.5936C47.1431 30.8896 46.6841 31.1292 46.225 31.256C43.066 32.1861 39.9204 32.313 36.7613 31.2419C32.0092 29.6212 28.9851 24.9988 29.3226 19.8549C29.6871 14.3023 33.6967 9.84902 39.0024 9.07392C44.578 8.25653 49.7891 11.8079 51.3552 17.3041C51.5442 17.9806 51.6792 18.6852 51.7602 19.3899C51.9492 21.2501 50.8692 22.448 48.9791 22.448C44.065 22.4621 39.1374 22.448 34.2097 22.448C33.9802 22.4198 33.7507 22.4198 33.4132 22.4198ZM47.6426 18.4315C47.1971 15.7821 44.335 12.7803 40.5279 12.8226C36.6263 12.8649 33.8857 15.8807 33.4942 18.4315C38.1923 18.4315 42.8905 18.4315 47.6426 18.4315Z" fill="#F82E52"/>
<path d="M95.4067 31.5481C89.7366 31.6891 84.2014 26.9398 84.2014 20.0484C84.2014 13.2134 89.6826 8.45002 95.5282 8.52049C101.671 8.59095 106.639 13.7348 106.652 20.0766C106.652 26.5311 101.387 31.675 95.4067 31.5481ZM102.845 20.0625C102.886 16.1165 99.7673 12.4383 95.3932 12.4383C91.3566 12.4383 88.0085 15.8628 87.9815 19.9498C87.9545 24.1776 91.3026 27.6867 95.3527 27.6867C99.5378 27.6867 102.832 24.3326 102.845 20.0625Z" fill="#F82E52"/>
<path d="M53.9199 24.4729C53.9199 22.7394 53.8389 21.006 53.9334 19.2867C54.1629 15.4535 55.9719 12.5362 59.0635 10.5773C63.8021 7.57557 69.7018 8.6889 73.2254 13.1281C74.7779 15.087 75.5745 17.356 75.588 19.9068C75.6015 23.2609 75.588 26.615 75.588 29.969C75.588 31.0824 74.8184 31.9279 73.7924 31.9561C72.6179 31.9843 71.7944 31.1951 71.7944 29.9972C71.7809 26.7277 71.7809 23.4582 71.7944 20.1745C71.7944 16.2567 69.0943 13.1704 65.2197 12.8463C61.8041 12.5503 58.51 14.8897 57.781 18.7934C57.673 19.3713 57.673 19.9632 57.673 20.5551C57.6595 23.585 57.6865 26.615 57.6595 29.6449C57.6595 30.11 57.5785 30.6314 57.376 31.0401C56.998 31.8152 56.0934 32.1252 55.2564 31.9279C54.5274 31.7447 53.9199 31.0119 53.9064 30.1523C53.8794 28.2638 53.8929 26.3754 53.8929 24.4869C53.9064 24.4729 53.9064 24.4729 53.9199 24.4729Z" fill="#F82E52"/>
<path d="M78.3153 15.9893C78.3153 11.3387 78.3153 6.68805 78.3153 2.03742C78.3153 1.07911 78.7473 0.430837 79.5573 0.120796C80.2864 -0.161061 81.1774 0.0503315 81.6499 0.754972C81.9064 1.12139 82.0954 1.64282 82.0954 2.09379C82.1224 11.3387 82.1224 20.5836 82.1089 29.8284C82.1089 30.8713 81.5959 31.6323 80.7724 31.9001C79.9759 32.1538 79.1118 31.886 78.6663 31.1532C78.4638 30.8149 78.3288 30.364 78.3288 29.9694C78.3153 25.2906 78.3153 20.6399 78.3153 15.9893Z" fill="#F82E52"/>
<path d="M117.318 31.6302V8.36456H119.862V31.6302H117.318Z" fill="#888888"/>
<path d="M124.966 31.6302V8.36456H128.535L136.432 24.8832L144.296 8.36456H147.865V31.6302H145.453V11.2894L136.399 29.9684L127.345 11.3226V31.6302H124.966Z" fill="#888888"/>
<path d="M163.782 31.9958C162.107 31.9958 160.543 31.6967 159.089 31.0984C157.657 30.478 156.391 29.6249 155.289 28.5392C154.21 27.4313 153.362 26.1572 152.745 24.717C152.15 23.2546 151.853 21.6814 151.853 19.9974C151.853 18.3134 152.15 16.7513 152.745 15.311C153.362 13.8486 154.21 12.5745 155.289 11.4888C156.391 10.3809 157.657 9.52785 159.089 8.92959C160.543 8.30917 162.107 7.99896 163.782 7.99896C165.434 7.99896 166.976 8.30917 168.408 8.92959C169.862 9.52785 171.128 10.3809 172.208 11.4888C173.309 12.5745 174.157 13.8486 174.752 15.311C175.369 16.7513 175.677 18.3134 175.677 19.9974C175.677 21.6814 175.369 23.2546 174.752 24.717C174.157 26.1572 173.309 27.4313 172.208 28.5392C171.128 29.6249 169.862 30.478 168.408 31.0984C166.976 31.6967 165.434 31.9958 163.782 31.9958ZM163.782 29.636C165.103 29.636 166.326 29.3923 167.449 28.9048C168.573 28.4173 169.553 27.7415 170.39 26.8774C171.249 25.9911 171.91 24.9607 172.373 23.7864C172.858 22.612 173.1 21.349 173.1 19.9974C173.1 18.6236 172.858 17.3606 172.373 16.2084C171.91 15.0341 171.249 14.0148 170.39 13.1506C169.553 12.2643 168.573 11.5774 167.449 11.09C166.326 10.6025 165.103 10.3588 163.782 10.3588C162.46 10.3588 161.226 10.6025 160.081 11.09C158.957 11.5774 157.966 12.2643 157.107 13.1506C156.27 14.0148 155.609 15.0341 155.124 16.2084C154.662 17.3606 154.43 18.6125 154.43 19.9642C154.43 21.3379 154.662 22.612 155.124 23.7864C155.609 24.9607 156.27 25.9911 157.107 26.8774C157.966 27.7415 158.957 28.4173 160.081 28.9048C161.226 29.3923 162.46 29.636 163.782 29.636Z" fill="#888888"/>
<path d="M179.662 31.6302V8.36456H189.047C190.545 8.36456 191.833 8.6083 192.913 9.09577C194.014 9.58324 194.862 10.2812 195.457 11.1897C196.052 12.076 196.349 13.1285 196.349 14.3472C196.349 15.5437 196.03 16.5851 195.391 17.4714C194.774 18.3577 193.915 19.0335 192.814 19.4988C194.201 19.9198 195.292 20.6178 196.085 21.5928C196.9 22.5677 197.308 23.731 197.308 25.0826C197.308 26.4121 196.977 27.5753 196.316 28.5724C195.677 29.5474 194.763 30.3007 193.574 30.8325C192.406 31.3643 191.029 31.6302 189.443 31.6302H179.662ZM182.207 18.5017H188.914C190.412 18.5017 191.602 18.1472 192.483 17.4382C193.386 16.7291 193.838 15.7653 193.838 14.5466C193.838 13.3279 193.386 12.364 192.483 11.655C191.602 10.9459 190.412 10.5914 188.914 10.5914H182.207V18.5017ZM182.207 29.4034H189.245C190.919 29.4034 192.252 29.0045 193.243 28.2068C194.234 27.4092 194.73 26.3456 194.73 25.0161C194.73 23.6867 194.234 22.6231 193.243 21.8254C192.252 21.0277 190.919 20.6289 189.245 20.6289H182.207V29.4034Z" fill="#888888"/>
</svg>
